<svg xmlns="http://www.w3.org/2000/svg" viewBox="0 0 990 432" width="990" height="432">
  <rect width="990" height="432" fill="#C4C4C4" fill-opacity="0.1" rx="16"/>

  <!-- Title -->
  <text x="495" y="36" font-family="'Inter','Noto Sans',sans-serif" font-size="14" font-weight="700" fill="#888888" text-anchor="middle" letter-spacing="2">DESIGN THINKING RESEARCH FLOW</text>

  <!-- 3 Phase Flow: Empathize → Define → Ideation -->
  <!-- Phase 1: Empathize -->
  <rect x="40" y="60" width="280" height="50" rx="12" fill="#EF677F"/>
  <text x="180" y="91" font-family="'Inter',sans-serif" font-size="14" font-weight="700" fill="white" text-anchor="middle">01  EMPATHIZE</text>

  <!-- Arrow 1 -->
  <polygon points="340,85 355,75 355,95" fill="#DDDDDD"/>

  <!-- Phase 2: Define -->
  <rect x="370" y="60" width="250" height="50" rx="12" fill="#222222"/>
  <text x="495" y="91" font-family="'Inter',sans-serif" font-size="14" font-weight="700" fill="white" text-anchor="middle">02  DEFINE</text>

  <!-- Arrow 2 -->
  <polygon points="640,85 655,75 655,95" fill="#DDDDDD"/>

  <!-- Phase 3: Ideation -->
  <rect x="670" y="60" width="280" height="50" rx="12" fill="#37A3E2"/>
  <text x="810" y="91" font-family="'Inter',sans-serif" font-size="14" font-weight="700" fill="white" text-anchor="middle">03  IDEATION</text>

  <!-- Interview Participants Section -->
  <text x="495" y="155" font-family="'Inter',sans-serif" font-size="13" font-weight="700" fill="#555555" text-anchor="middle" letter-spacing="1">DEPTH INTERVIEW — 7 PARTICIPANTS</text>
  <line x1="150" y1="165" x2="840" y2="165" stroke="#EEEEEE" stroke-width="1"/>

  <!-- Participant icons - Row 1 (4 participants) -->
  <g transform="translate(100, 185)">
    <circle cx="50" cy="35" r="28" fill="white" stroke="#E5E7EB" stroke-width="1.5"/>
    <circle cx="50" cy="28" r="10" fill="#EF677F" opacity="0.3"/>
    <path d="M30,50 Q50,65 70,50" fill="none" stroke="#EF677F" stroke-width="1.5" opacity="0.3"/>
    <text x="50" y="38" font-family="'Inter',sans-serif" font-size="16" font-weight="700" fill="#EF677F" text-anchor="middle">1</text>
  </g>
  <g transform="translate(290, 185)">
    <circle cx="50" cy="35" r="28" fill="white" stroke="#E5E7EB" stroke-width="1.5"/>
    <circle cx="50" cy="28" r="10" fill="#EF677F" opacity="0.3"/>
    <path d="M30,50 Q50,65 70,50" fill="none" stroke="#EF677F" stroke-width="1.5" opacity="0.3"/>
    <text x="50" y="38" font-family="'Inter',sans-serif" font-size="16" font-weight="700" fill="#EF677F" text-anchor="middle">2</text>
  </g>
  <g transform="translate(480, 185)">
    <circle cx="50" cy="35" r="28" fill="white" stroke="#E5E7EB" stroke-width="1.5"/>
    <circle cx="50" cy="28" r="10" fill="#EF677F" opacity="0.3"/>
    <path d="M30,50 Q50,65 70,50" fill="none" stroke="#EF677F" stroke-width="1.5" opacity="0.3"/>
    <text x="50" y="38" font-family="'Inter',sans-serif" font-size="16" font-weight="700" fill="#EF677F" text-anchor="middle">3</text>
  </g>
  <g transform="translate(670, 185)">
    <circle cx="50" cy="35" r="28" fill="white" stroke="#E5E7EB" stroke-width="1.5"/>
    <circle cx="50" cy="28" r="10" fill="#EF677F" opacity="0.3"/>
    <path d="M30,50 Q50,65 70,50" fill="none" stroke="#EF677F" stroke-width="1.5" opacity="0.3"/>
    <text x="50" y="38" font-family="'Inter',sans-serif" font-size="16" font-weight="700" fill="#EF677F" text-anchor="middle">4</text>
  </g>

  <!-- Row 2 (3 participants) -->
  <g transform="translate(195, 265)">
    <circle cx="50" cy="35" r="28" fill="white" stroke="#E5E7EB" stroke-width="1.5"/>
    <circle cx="50" cy="28" r="10" fill="#EF677F" opacity="0.3"/>
    <path d="M30,50 Q50,65 70,50" fill="none" stroke="#EF677F" stroke-width="1.5" opacity="0.3"/>
    <text x="50" y="38" font-family="'Inter',sans-serif" font-size="16" font-weight="700" fill="#EF677F" text-anchor="middle">5</text>
  </g>
  <g transform="translate(385, 265)">
    <circle cx="50" cy="35" r="28" fill="white" stroke="#E5E7EB" stroke-width="1.5"/>
    <circle cx="50" cy="28" r="10" fill="#EF677F" opacity="0.3"/>
    <path d="M30,50 Q50,65 70,50" fill="none" stroke="#EF677F" stroke-width="1.5" opacity="0.3"/>
    <text x="50" y="38" font-family="'Inter',sans-serif" font-size="16" font-weight="700" fill="#EF677F" text-anchor="middle">6</text>
  </g>
  <g transform="translate(575, 265)">
    <circle cx="50" cy="35" r="28" fill="white" stroke="#E5E7EB" stroke-width="1.5"/>
    <circle cx="50" cy="28" r="10" fill="#EF677F" opacity="0.3"/>
    <path d="M30,50 Q50,65 70,50" fill="none" stroke="#EF677F" stroke-width="1.5" opacity="0.3"/>
    <text x="50" y="38" font-family="'Inter',sans-serif" font-size="16" font-weight="700" fill="#EF677F" text-anchor="middle">7</text>
  </g>

  <!-- Aha Moment threshold marker -->
  <rect x="180" y="370" width="630" height="46" rx="14" fill="#EF677F" opacity="0.1"/>
  <line x1="495" y1="365" x2="495" y2="375" stroke="#EF677F" stroke-width="2"/>
  <!-- Threshold icon -->
  <circle cx="340" cy="393" r="14" fill="#EF677F"/>
  <text x="340" y="398" font-family="'Inter',sans-serif" font-size="14" font-weight="800" fill="white" text-anchor="middle">3</text>
  <text x="370" y="390" font-family="'Inter',sans-serif" font-size="11" font-weight="600" fill="#EF677F">= Aha Moment Threshold</text>
  <text x="370" y="406" font-family="'Inter',sans-serif" font-size="10" fill="#999999">Retention Key Point</text>
</svg>
